<svg width="120" height="25" viewBox="0 0 120 25" fill="none" xmlns="http://www.w3.org/2000/svg">
<g clip-path="url(#clip0_5_78)">
<path d="M18.0168 11.0455C17.6824 11.386 17.4263 11.7969 17.2668 12.2488C17.1072 12.7009 17.0482 13.183 17.0938 13.6607L17.0779 13.6447C17.1249 14.2071 17.05 14.773 16.8584 15.303C16.6669 15.833 16.3632 16.3144 15.9689 16.7135C15.5745 17.1125 15.0988 17.4197 14.5751 17.6136C14.0512 17.8074 13.492 17.8832 12.9362 17.8357L12.9521 17.8518C12.2873 17.7892 11.6196 17.9355 11.0401 18.271C10.4605 18.6064 9.99733 19.1146 9.71356 19.7262C9.42989 20.3378 9.33953 21.023 9.45477 21.6885C9.57 22.3539 9.88527 22.9672 10.3576 23.4447C10.8299 23.9222 11.4363 24.2407 12.094 24.3567C12.7518 24.4728 13.4289 24.3807 14.0329 24.093C14.6371 23.8055 15.1389 23.3363 15.4699 22.7495C15.8008 22.1627 15.9448 21.487 15.8824 20.8143L15.8991 20.8304C15.8523 20.268 15.9272 19.7021 16.1187 19.1721C16.3103 18.642 16.6138 18.1606 17.0082 17.7615C17.4026 17.3625 17.8782 17.0554 18.4021 16.8615C18.9259 16.6677 19.4852 16.5918 20.0409 16.6393L20.0241 16.6232C20.5672 16.6727 21.1137 16.5826 21.6132 16.3613C22.1127 16.14 22.5489 15.7948 22.8814 15.3575C23.2139 14.9203 23.4319 14.4051 23.5153 13.8599C23.5987 13.3147 23.5447 12.757 23.3583 12.2385C23.1719 11.7199 22.8593 11.2574 22.4493 10.8938C22.0392 10.5301 21.545 10.2772 21.0126 10.1581C20.4802 10.0392 19.9268 10.0581 19.4036 10.2133C18.8803 10.3684 18.4042 10.6547 18.0194 11.0455H18.0168Z" fill="#737680"/>
<path d="M11.5077 15.7465L11.4909 15.7304C11.9633 15.7785 12.4403 15.7198 12.8875 15.5586C13.3347 15.3973 13.7409 15.1376 14.0767 14.7981C14.4125 14.4585 14.6696 14.0476 14.8293 13.5952C14.989 13.1428 15.0473 12.6602 15 12.1822L15.0168 12.1982C14.9699 11.6358 15.0448 11.0699 15.2364 10.5398C15.4279 10.0098 15.7315 9.52851 16.1259 9.1294C16.5202 8.73035 16.9959 8.42319 17.5197 8.22935C18.0435 8.03552 18.6028 7.95969 19.1585 8.00717L19.1418 7.99109C19.8066 8.05427 20.4746 7.90838 21.0544 7.57333C21.6343 7.23827 22.0979 6.73035 22.382 6.11886C22.6662 5.50738 22.757 4.82209 22.6421 4.15645C22.5272 3.49082 22.2122 2.87726 21.74 2.39946C21.2678 1.92167 20.6614 1.60288 20.0037 1.48661C19.3459 1.37034 18.6687 1.46222 18.0643 1.74974C17.4601 2.03725 16.9581 2.5064 16.627 3.09319C16.2959 3.67998 16.1517 4.35584 16.2141 5.02859L16.1982 5.01163C16.2454 5.57403 16.1705 6.14005 15.979 6.67016C15.7875 7.20026 15.484 7.68168 15.0896 8.08078C14.6952 8.47989 14.2194 8.78706 13.6955 8.98083C13.1717 9.17458 12.6123 9.25029 12.0565 9.2027L12.0724 9.21967C11.6 9.17154 11.123 9.2302 10.6758 9.39145C10.2286 9.55261 9.82245 9.81243 9.48662 10.152C9.1508 10.4915 8.89377 10.9024 8.73405 11.3548C8.57436 11.8073 8.51603 12.2898 8.56327 12.7679L8.54739 12.7518C8.59414 13.3141 8.5191 13.88 8.3275 14.41C8.13588 14.9399 7.83232 15.4213 7.43799 15.8203C7.04364 16.2193 6.56802 16.5265 6.04429 16.7204C5.52056 16.9142 4.96134 16.9902 4.40562 16.9429L4.4215 16.959C3.75667 16.8957 3.08875 17.0416 2.50887 17.3767C1.92898 17.7118 1.46535 18.2197 1.18122 18.8312C0.897085 19.4427 0.806277 20.128 0.921182 20.7936C1.03609 21.4592 1.35113 22.0728 1.8233 22.5506C2.29548 23.0284 2.90182 23.3472 3.55962 23.4634C4.21742 23.5797 4.89466 23.4878 5.49895 23.2003C6.10325 22.9128 6.60519 22.4437 6.9363 21.8569C7.26741 21.27 7.41159 20.5942 7.34915 19.9215L7.36591 19.9375C7.319 19.3751 7.39394 18.8092 7.58549 18.2791C7.77704 17.7491 8.0806 17.2678 8.47497 16.8687C8.86933 16.4697 9.34501 16.1624 9.86886 15.9687C10.3926 15.7748 10.9519 15.699 11.5077 15.7465Z" fill="#737680"/>
<path d="M5.59414 13.9544C5.92857 13.6141 6.18461 13.2032 6.344 12.7511C6.50339 12.2991 6.56219 11.8169 6.5162 11.3393L6.53296 11.3553C6.48601 10.7928 6.56098 10.2267 6.75263 9.6965C6.94429 9.16632 7.24801 8.68489 7.64258 8.28579C8.03715 7.88669 8.51307 7.57956 9.03705 7.38586C9.56108 7.19214 10.1206 7.11652 10.6765 7.16427L10.6597 7.14819C11.3243 7.2112 11.992 7.06523 12.5716 6.73019C13.1512 6.39517 13.6146 5.88737 13.8986 5.27608C14.1825 4.66478 14.2732 3.97973 14.1583 3.31435C14.0434 2.64896 13.7285 2.03564 13.2565 1.55802C12.7845 1.08039 12.1784 0.761714 11.5208 0.645443C10.8633 0.529172 10.1863 0.620967 9.58217 0.908311C8.97802 1.19565 8.47625 1.66455 8.14515 2.25107C7.81407 2.83759 7.66981 3.51318 7.73208 4.18569L7.7162 4.16962C7.7631 4.73199 7.68817 5.29794 7.49662 5.82798C7.30507 6.35802 7.00151 6.83936 6.60713 7.23844C6.21277 7.63751 5.73707 7.94468 5.21327 8.13851C4.68947 8.33234 4.13018 8.40817 3.57443 8.36069L3.59032 8.37677C3.04729 8.32749 2.50075 8.41771 2.00136 8.63907C1.50196 8.86043 1.06587 9.20578 0.733473 9.6431C0.401081 10.0803 0.183152 10.5955 0.0998796 11.1407C0.0166072 11.686 0.0706857 12.2436 0.257104 12.762C0.443523 13.2805 0.756251 13.7429 1.16631 14.1065C1.57636 14.4702 2.07048 14.7231 2.60287 14.842C3.13526 14.9609 3.6887 14.9419 4.21191 14.7868C4.73511 14.6316 5.21115 14.3453 5.5959 13.9544H5.59414Z" fill="#737680"/>
<path d="M32.9268 5.04919H35.5473V17.9536H32.9268V5.04919Z" fill="#737680"/>
<path d="M37.0315 13.5349C37.0278 12.6076 37.2962 11.6999 37.8027 10.927C38.3092 10.1542 39.031 9.55077 39.8766 9.19327C40.7223 8.83585 41.6537 8.74041 42.553 8.91905C43.4523 9.09765 44.2789 9.54238 44.9283 10.1968C45.5776 10.8512 46.0203 11.6859 46.2005 12.5952C46.3807 13.5045 46.2901 14.4475 45.9402 15.3046C45.5904 16.1617 44.997 16.8945 44.2353 17.4101C43.4734 17.9257 42.5777 18.2009 41.6612 18.2009C41.0529 18.208 40.4492 18.0922 39.8856 17.8604C39.322 17.6286 38.8097 17.2855 38.3786 16.851C37.9475 16.4167 37.6064 15.8996 37.3751 15.3302C37.1438 14.7609 37.027 14.1505 37.0315 13.5349ZM43.6703 13.5349C43.6593 13.1351 43.5322 12.7476 43.3048 12.4205C43.0773 12.0935 42.7597 11.8416 42.3916 11.6963C42.0234 11.5509 41.6211 11.5186 41.2349 11.6034C40.8487 11.6883 40.4958 11.8863 40.2202 12.173C39.9447 12.4596 39.7587 12.8221 39.6857 13.2151C39.6126 13.6081 39.6557 14.0142 39.8095 14.3826C39.9633 14.7509 40.2209 15.0652 40.5502 15.2862C40.8796 15.5072 41.266 15.6251 41.6612 15.6251C41.9318 15.6324 42.201 15.5828 42.4518 15.4796C42.7026 15.3764 42.9296 15.2218 43.1183 15.0254C43.307 14.829 43.4536 14.5951 43.5485 14.3386C43.6436 14.0821 43.685 13.8085 43.6703 13.5349Z" fill="#737680"/>
<path d="M56.7353 9.11513V17.508C56.7353 20.4776 54.4465 21.733 52.1232 21.733C51.3052 21.795 50.4862 21.6277 49.7559 21.2498C49.0256 20.8717 48.4123 20.2975 47.9832 19.5901L50.2191 18.2821C50.3995 18.6508 50.6868 18.955 51.0427 19.1541C51.3986 19.3531 51.806 19.4373 52.2106 19.3955C52.4691 19.4317 52.7324 19.4087 52.9809 19.3281C53.2294 19.2475 53.4569 19.1114 53.6464 18.9298C53.836 18.7482 53.9827 18.5258 54.0758 18.2791C54.169 18.0324 54.206 17.7676 54.1844 17.5044V16.6964C53.8775 17.0763 53.4869 17.3782 53.044 17.5777C52.6009 17.7773 52.1179 17.869 51.6335 17.8455C50.481 17.8087 49.3879 17.3196 48.5854 16.4816C47.783 15.6436 47.3344 14.5226 47.3344 13.3558C47.3344 12.189 47.783 11.0679 48.5854 10.23C49.3879 9.39192 50.481 8.90281 51.6335 8.86604C52.1179 8.84251 52.6009 8.93424 53.044 9.1338C53.4869 9.33335 53.8775 9.63522 54.1844 10.0151V9.11335L56.7353 9.11513ZM54.1853 13.3571C54.2029 12.9298 54.0937 12.5068 53.8718 12.1428C53.6499 11.7787 53.3254 11.4902 52.94 11.3144C52.5547 11.1385 52.1261 11.0834 51.7096 11.1561C51.293 11.2288 50.9075 11.4259 50.6027 11.7223C50.2978 12.0185 50.0875 12.4003 49.9989 12.8185C49.9103 13.2368 49.9473 13.6723 50.1054 14.069C50.2634 14.4657 50.5352 14.8055 50.8856 15.0446C51.2362 15.2837 51.6493 15.4112 52.0721 15.4107C52.3474 15.4301 52.6237 15.391 52.8832 15.2958C53.1427 15.2007 53.3796 15.0516 53.5787 14.8581C53.7777 14.6646 53.9346 14.4311 54.0391 14.1725C54.1436 13.9141 54.1933 13.6363 54.1853 13.3571Z" fill="#737680"/>
<path d="M58.2194 13.5349C58.2158 12.6076 58.4841 11.6999 58.9907 10.927C59.4971 10.1542 60.2189 9.55077 61.0646 9.19327C61.9102 8.83585 62.8416 8.74041 63.7409 8.91905C64.6402 9.09765 65.4669 9.54238 66.1162 10.1968C66.7655 10.8512 67.2083 11.6859 67.3885 12.5952C67.5686 13.5045 67.478 14.4475 67.1282 15.3046C66.7783 16.1617 66.1849 16.8945 65.4232 17.4101C64.6614 17.9257 63.7656 18.2009 62.8491 18.2009C62.2408 18.208 61.6371 18.0922 61.0736 17.8604C60.5099 17.6286 59.9976 17.2855 59.5666 16.851C59.1355 16.4167 58.7943 15.8996 58.5631 15.3302C58.3317 14.7609 58.2149 14.1505 58.2194 13.5349ZM64.8582 13.5349C64.8473 13.1351 64.7201 12.7476 64.4928 12.4205C64.2653 12.0935 63.9476 11.8416 63.5795 11.6963C63.2113 11.5509 62.809 11.5186 62.4229 11.6034C62.0366 11.6883 61.6837 11.8863 61.4081 12.173C61.1327 12.4596 60.9467 12.8221 60.8736 13.2151C60.8006 13.6081 60.8436 14.0142 60.9974 14.3826C61.1512 14.7509 61.4089 15.0652 61.7381 15.2862C62.0675 15.5072 62.4539 15.6251 62.8491 15.6251C63.1197 15.6324 63.3889 15.5828 63.6398 15.4796C63.8906 15.3764 64.1175 15.2218 64.3062 15.0254C64.495 14.829 64.6415 14.5951 64.7365 14.3386C64.8315 14.0821 64.873 13.8085 64.8582 13.5349Z" fill="#737680"/>
<path d="M68.7009 6.74647C68.7009 6.43178 68.7931 6.12417 68.9659 5.86251C69.1387 5.60087 69.3843 5.39693 69.6716 5.2765C69.9589 5.15609 70.275 5.12458 70.58 5.18597C70.8851 5.24736 71.1652 5.3989 71.3851 5.62142C71.605 5.84392 71.7547 6.12742 71.8154 6.43607C71.876 6.7447 71.845 7.06461 71.7259 7.35534C71.6069 7.64608 71.4054 7.89457 71.1468 8.0694C70.8882 8.24423 70.5843 8.33754 70.2732 8.33754C69.8576 8.33335 69.46 8.16438 69.166 7.8669C68.8721 7.56942 68.705 7.16715 68.7009 6.74647ZM68.9656 9.11523H71.5871V17.9545H68.9621L68.9656 9.11523Z" fill="#737680"/>
<path d="M82.9024 13.5348C82.9326 14.119 82.8485 14.7034 82.6548 15.2546C82.4611 15.8058 82.1615 16.3127 81.7736 16.7464C81.3855 17.18 80.9166 17.5317 80.3938 17.7814C79.8709 18.031 79.3046 18.1735 78.7271 18.2008C78.2414 18.2277 77.7559 18.1448 77.3059 17.9583C76.8559 17.7717 76.4524 17.4861 76.125 17.1223V21.4892H73.5044V9.11513H76.125V9.94549C76.4526 9.58192 76.8561 9.29665 77.3061 9.11022C77.7561 8.92384 78.2415 8.84104 78.7271 8.86784C79.3046 8.89504 79.8712 9.03755 80.3942 9.28719C80.9171 9.53683 81.3861 9.88862 81.7742 10.3224C82.1622 10.7561 82.4616 11.2633 82.6553 11.8146C82.8489 12.3659 82.9329 12.9505 82.9024 13.5348ZM80.2818 13.5348C80.2715 13.1211 80.1409 12.7197 79.9063 12.3808C79.6717 12.0417 79.3436 11.7804 78.9628 11.6292C78.5822 11.4781 78.1659 11.444 77.7661 11.531C77.3663 11.6181 77.0007 11.8226 76.7153 12.1189C76.4298 12.4151 76.237 12.79 76.161 13.1967C76.0849 13.6033 76.1292 14.0235 76.2881 14.4048C76.447 14.7861 76.7134 15.1115 77.0542 15.3403C77.395 15.5691 77.7948 15.6911 78.2038 15.691C78.4846 15.7037 78.7648 15.6561 79.0261 15.5516C79.2874 15.4469 79.5239 15.2875 79.7201 15.084C79.9164 14.8804 80.0678 14.6371 80.1646 14.3701C80.2614 14.1032 80.3014 13.8185 80.2818 13.5348Z" fill="#737680"/>
<path d="M90.9891 15.3017C90.9891 17.3348 89.2429 18.2008 87.3565 18.2008C86.5943 18.2707 85.8289 18.1075 85.1592 17.7325C84.4896 17.3575 83.9465 16.7879 83.6003 16.0973L85.8706 14.7892C85.9624 15.1084 86.1597 15.3861 86.4295 15.5759C86.6993 15.7657 87.0252 15.8561 87.3529 15.8321C87.9812 15.8321 88.2962 15.6374 88.2962 15.2848C88.2962 14.3115 83.9982 14.8249 83.9982 11.7669C83.9982 9.83923 85.6059 8.86778 87.4226 8.86778C88.1056 8.8459 88.7815 9.00985 89.3806 9.34244C89.9797 9.67503 90.48 10.1642 90.8285 10.7589L88.5926 11.9785C88.4947 11.747 88.3315 11.5498 88.1233 11.4115C87.9153 11.2732 87.6716 11.1999 87.4226 11.2008C86.9682 11.2008 86.6885 11.3794 86.6885 11.6955C86.6921 12.7035 90.9891 12.0312 90.9891 15.3017Z" fill="#737680"/>
<path d="M100.562 9.11523V17.9545H97.9412V17.1233C97.6385 17.4901 97.2547 17.7791 96.8206 17.9666C96.3865 18.1541 95.9153 18.2347 95.4441 18.2018C93.6794 18.2018 92.1794 16.9295 92.1794 14.5411V9.11523H94.8V14.1527C94.7779 14.3633 94.8018 14.576 94.8697 14.7764C94.9368 14.9768 95.0471 15.1597 95.1918 15.3127C95.3365 15.4657 95.5121 15.5849 95.7071 15.6621C95.9012 15.7393 96.1103 15.7727 96.3194 15.7599C97.2803 15.7599 97.9438 15.1947 97.9438 13.9393V9.11791L100.562 9.11523Z" fill="#737680"/>
<path d="M115.588 12.5268V17.9536H112.968V12.7562C112.968 11.8723 112.549 11.3071 111.71 11.3071C110.837 11.3071 110.347 11.9259 110.347 12.9687V17.9536H107.727V12.7562C107.727 11.8723 107.308 11.3071 106.469 11.3071C105.596 11.3071 105.107 11.9259 105.107 12.9687V17.9536H102.486V9.11428H105.107V9.92678C105.379 9.56633 105.735 9.28044 106.144 9.09535C106.553 8.91019 107.001 8.83167 107.448 8.86694C107.896 8.84474 108.342 8.94053 108.744 9.14481C109.144 9.34919 109.486 9.65517 109.736 10.033C110.026 9.63776 110.411 9.32348 110.854 9.11955C111.296 8.91564 111.784 8.82872 112.269 8.86694C114.274 8.86783 115.588 10.317 115.588 12.5268Z" fill="#737680"/>
<path d="M117.805 9.06072C118.879 9.06072 119.749 8.17967 119.749 7.09286C119.749 6.00604 118.879 5.125 117.805 5.125C116.731 5.125 115.86 6.00604 115.86 7.09286C115.86 8.17967 116.731 9.06072 117.805 9.06072Z" fill="#737680"/>
</g>
<defs>
<clipPath id="clip0_5_78">
<rect width="120" height="25" fill="white"/>
</clipPath>
</defs>
</svg>
